<svg xmlns="http://www.w3.org/2000/svg" width="25.347" height="26.178" viewBox="0 0 25.347 26.178"><defs><style>.a{fill:#4c1a16;}</style></defs><g transform="translate(0 26.178) rotate(-90)"><path class="a" d="M2.62,5.074A2.584,2.584,0,0,0,5.242,2.537a2.472,2.472,0,0,0-.5-1.479,2.663,2.663,0,0,0-4.25,0A2.472,2.472,0,0,0,0,2.537,2.583,2.583,0,0,0,2.62,5.074Z" transform="translate(10.468 10.136)"/><path class="a" d="M2.524,2.443V0H2.2L0,.008.009,2.451Z" transform="translate(16.286 7.127)"/><path class="a" d="M13.089,0A12.9,12.9,0,0,0,0,12.674,12.9,12.9,0,0,0,13.089,25.347,12.9,12.9,0,0,0,26.178,12.674,12.9,12.9,0,0,0,13.089,0Zm7.444,11.195v5.9a2.835,2.835,0,0,1-2.877,2.786H8.522A2.835,2.835,0,0,1,5.645,17.1V8.252A2.835,2.835,0,0,1,8.522,5.466h9.133a2.836,2.836,0,0,1,2.878,2.786Z" transform="translate(0)"/><path class="a" d="M10.065,1.479A4.013,4.013,0,0,1,5.994,5.421,4.013,4.013,0,0,1,1.923,1.479,3.808,3.808,0,0,1,2.222,0H0V5.9a1.4,1.4,0,0,0,1.427,1.38H10.56A1.4,1.4,0,0,0,11.986,5.9V0H9.764A3.8,3.8,0,0,1,10.065,1.479Z" transform="translate(7.095 11.195)"/></g></svg>