<svg xmlns="http://www.w3.org/2000/svg" width="37.86" height="36.658" viewBox="0 0 37.86 36.658"><defs><style>.a{fill:#fff;}</style></defs><g transform="translate(0 0)"><path class="a" d="M3.79,7.339A3.737,3.737,0,0,0,7.581,3.669a3.576,3.576,0,0,0-.718-2.139,3.851,3.851,0,0,0-6.147,0A3.575,3.575,0,0,0,0,3.669,3.735,3.735,0,0,0,3.79,7.339Z" transform="translate(15.139 14.66)"/><path class="a" d="M3.651,3.534V0H3.175L0,.011.013,3.545Z" transform="translate(23.554 10.307)"/><path class="a" d="M18.93,0C8.492,0,0,8.223,0,18.329S8.492,36.658,18.93,36.658s18.93-8.223,18.93-18.329S29.368,0,18.93,0ZM29.7,16.19v8.535a4.1,4.1,0,0,1-4.161,4.03H12.325a4.1,4.1,0,0,1-4.161-4.03V11.935a4.1,4.1,0,0,1,4.161-4.029H25.534A4.1,4.1,0,0,1,29.7,11.935Z" transform="translate(0 0)"/><path class="a" d="M14.557,2.139a5.8,5.8,0,0,1-5.888,5.7,5.8,5.8,0,0,1-5.888-5.7A5.507,5.507,0,0,1,3.214,0H0V8.535a2.031,2.031,0,0,0,2.063,2H15.272a2.031,2.031,0,0,0,2.063-2V0H14.121A5.5,5.5,0,0,1,14.557,2.139Z" transform="translate(10.261 16.19)"/></g></svg>