<svg xmlns="http://www.w3.org/2000/svg" width="25.347" height="25.347" viewBox="0 0 25.347 25.347"><defs><style>.a{fill:#4c1a16;}</style></defs><path class="a" d="M12.674,0A12.674,12.674,0,1,0,25.347,12.674,12.688,12.688,0,0,0,12.674,0Zm5.654,9.773c.006.126.009.252.009.379A8.3,8.3,0,0,1,5.564,17.14a5.89,5.89,0,0,0,4.319-1.208,2.92,2.92,0,0,1-2.725-2.026,2.856,2.856,0,0,0,.548.053,2.935,2.935,0,0,0,.769-.1A2.918,2.918,0,0,1,6.136,11c0-.012,0-.025,0-.037a2.905,2.905,0,0,0,1.321.364,2.921,2.921,0,0,1-.9-3.895,8.283,8.283,0,0,0,6.012,3.049,2.919,2.919,0,0,1,4.971-2.661A5.813,5.813,0,0,0,19.39,7.11a2.928,2.928,0,0,1-1.283,1.614,5.808,5.808,0,0,0,1.675-.459A5.9,5.9,0,0,1,18.327,9.773Z" transform="translate(0 25.347) rotate(-90)"/></svg>