<svg xmlns="http://www.w3.org/2000/svg" width="36.658" height="36.658" viewBox="0 0 36.658 36.658"><defs><style>.a{fill:#fff;}</style></defs><path class="a" d="M18.329,0A18.329,18.329,0,1,0,36.658,18.329,18.35,18.35,0,0,0,18.329,0Zm8.177,14.134c.008.182.013.365.013.548A12,12,0,0,1,8.048,24.789a8.519,8.519,0,0,0,6.246-1.747,4.223,4.223,0,0,1-3.941-2.93,4.131,4.131,0,0,0,.793.076,4.244,4.244,0,0,0,1.112-.148A4.22,4.22,0,0,1,8.874,15.9c0-.018,0-.036,0-.053a4.2,4.2,0,0,0,1.91.527,4.225,4.225,0,0,1-1.305-5.633,11.979,11.979,0,0,0,8.7,4.409,4.222,4.222,0,0,1,7.189-3.849,8.407,8.407,0,0,0,2.68-1.024,4.235,4.235,0,0,1-1.856,2.335,8.4,8.4,0,0,0,2.423-.664A8.529,8.529,0,0,1,26.506,14.134Z"/></svg>